<?xml version="1.0" standalone="no"?>
<!DOCTYPE svg PUBLIC "-//W3C//DTD SVG 20010904//EN"
 "http://www.w3.org/TR/2001/REC-SVG-20010904/DTD/svg10.dtd">
<svg version="1.0" xmlns="http://www.w3.org/2000/svg"
 width="300.000000pt" height="136.000000pt" viewBox="0 0 300.000000 136.000000"
 preserveAspectRatio="xMidYMid meet">
<metadata>
Created by potrace 1.10, written by Peter Selinger 2001-2011
</metadata>
<g transform="translate(0.000000,136.000000) scale(0.100000,-0.100000)"
fill="#000000" stroke="none">
<path d="M990 970 c-11 -11 -20 -26 -21 -32 -5 -117 -3 -449 3 -467 18 -51 77
-67 116 -31 20 19 22 31 22 115 0 52 0 98 0 103 0 4 -10 7 -21 7 -20 0 -21 -6
-23 -89 -1 -73 -4 -91 -19 -100 -14 -9 -20 -8 -27 4 -10 16 -14 418 -4 444 8
21 40 20 49 -1 3 -10 5 -54 4 -98 -2 -75 -1 -79 19 -79 12 0 22 3 22 7 0 4 0
50 0 102 0 108 -14 135 -70 135 -17 0 -39 -9 -50 -20z"/>
<path d="M1150 959 c0 -23 3 -25 30 -21 l31 4 -1 -258 -1 -259 23 0 23 0 0
258 0 259 28 -6 c24 -5 27 -3 27 22 l0 28 -80 -1 c-79 0 -80 0 -80 -26z"/>
<path d="M1365 977 c-3 -7 -4 -133 -3 -281 l3 -269 23 -3 22 -4 0 285 c0 280
0 285 -20 285 -11 0 -23 -6 -25 -13z"/>
<path d="M2450 915 c0 -72 -1 -76 -20 -70 -16 5 -20 2 -20 -19 0 -19 5 -26 20
-26 19 0 20 -7 20 -165 0 -152 2 -167 20 -185 11 -11 26 -20 34 -20 8 0 21 -3
30 -6 13 -5 16 1 16 25 0 26 -4 31 -25 31 -14 0 -25 3 -25 8 0 4 -1 76 -3 160
l-2 152 28 0 c22 0 27 4 27 25 0 22 -4 25 -27 23 l-28 -3 0 70 c0 65 -2 70
-22 73 -22 3 -23 0 -23 -73z"/>
<path d="M402 941 c-34 -21 -65 -41 -68 -43 -3 -3 45 -33 105 -67 63 -35 111
-68 111 -77 0 -8 -5 -23 -12 -33 -22 -36 17 -76 60 -60 16 6 22 16 22 38 0 16
-4 33 -10 36 -5 3 -10 18 -10 33 0 24 -11 33 -90 77 -78 44 -87 52 -73 63 27
20 55 14 111 -23 l53 -35 -3 32 c-2 27 -12 37 -58 64 -30 18 -59 33 -65 33 -5
0 -38 -17 -73 -38z m196 -239 c3 -16 -2 -22 -17 -22 -26 0 -36 17 -20 36 16
19 33 13 37 -14z"/>
<path d="M648 778 l-3 -133 -27 0 c-53 -1 -75 -46 -39 -79 26 -23 53 -17 69
16 7 15 21 30 32 33 18 6 20 16 20 112 l0 105 23 -14 c19 -13 22 -25 25 -92
l3 -76 24 16 c23 15 25 23 25 89 l0 73 -71 41 c-39 23 -72 41 -75 41 -2 0 -5
-60 -6 -132z m-18 -177 c0 -27 -19 -36 -37 -18 -18 18 -9 37 18 37 12 0 19 -7
19 -19z"/>
<path d="M240 816 l-55 -32 -3 -87 c-1 -48 -1 -87 2 -87 2 0 50 27 106 60 56
33 109 60 118 60 10 0 22 -10 27 -22 15 -35 66 -32 79 4 12 33 -6 58 -40 58
-13 0 -34 5 -48 11 -23 11 -35 6 -111 -39 l-86 -52 3 33 c3 27 12 37 61 66 53
32 57 36 41 48 -25 18 -32 17 -94 -21z m258 -87 c3 -17 -23 -33 -39 -23 -5 3
-9 14 -9 25 0 15 6 20 22 17 13 -2 24 -10 26 -19z"/>
<path d="M1536 843 c-4 -4 -22 -6 -42 -5 l-34 3 2 -208 3 -208 23 0 23 0 2
179 c2 159 4 180 20 190 31 19 37 -11 37 -196 0 -177 0 -178 22 -175 21 4 21
6 19 198 -2 183 -3 195 -22 212 -22 18 -41 22 -53 10z"/>
<path d="M1736 843 c-4 -4 -22 -6 -41 -5 l-35 3 0 -211 0 -210 25 0 25 0 2
188 c3 179 4 187 23 187 19 0 20 -8 23 -187 l2 -188 25 0 25 0 0 195 c0 182
-1 196 -20 215 -20 20 -41 25 -54 13z"/>
<path d="M1879 831 c-24 -19 -24 -22 -24 -196 0 -174 0 -177 24 -196 34 -27
75 -24 100 7 19 25 21 40 21 191 0 161 0 164 -25 188 -29 30 -64 32 -96 6z
m66 -196 c0 -153 -1 -160 -20 -160 -19 0 -20 8 -23 150 -1 82 0 155 3 163 3 7
13 12 22 10 16 -3 18 -19 18 -163z"/>
<path d="M2023 828 c3 -13 13 -68 21 -123 9 -55 23 -140 32 -190 15 -89 16
-90 45 -90 16 0 29 0 29 1 0 11 62 394 66 407 5 15 1 18 -22 15 l-28 -3 -18
-130 c-9 -71 -17 -147 -17 -167 -1 -74 -17 -36 -29 70 -7 59 -18 135 -23 170
-10 57 -13 62 -36 62 -21 0 -24 -4 -20 -22z"/>
<path d="M2260 830 c-11 -11 -20 -30 -20 -42 0 -13 -3 -33 -6 -45 -5 -20 -2
-23 19 -23 23 0 26 5 29 38 2 29 7 37 23 37 17 0 20 -8 23 -46 3 -43 1 -46
-35 -70 -45 -28 -62 -69 -62 -150 -1 -85 51 -139 90 -93 11 14 13 14 21 0 5
-9 16 -16 23 -16 13 0 15 31 15 194 l0 195 -26 20 c-34 26 -68 27 -94 1z m72
-262 c-4 -87 -11 -104 -36 -95 -25 10 -22 117 5 151 11 14 24 26 27 26 4 0 6
-37 4 -82z"/>
<path d="M2606 829 l-26 -20 0 -174 0 -174 26 -20 c61 -48 124 -3 124 88 0 37
-2 41 -25 41 -22 0 -25 -4 -25 -39 0 -46 -22 -70 -45 -51 -11 9 -15 32 -15 82
l0 69 53 -2 52 -3 3 69 c4 83 -2 109 -28 135 -26 26 -60 25 -94 -1z m68 -45
c3 -9 6 -38 6 -65 0 -49 -1 -50 -27 -47 -26 3 -28 7 -31 51 -3 49 9 77 33 77
7 0 16 -7 19 -16z"/>
<path d="M348 660 l-38 -40 0 -100 c0 -55 -4 -100 -8 -100 -5 0 -19 10 -31 21
-21 20 -22 27 -16 85 5 53 4 64 -8 64 -29 0 -38 -27 -35 -101 l3 -73 65 -38
c36 -20 68 -37 72 -37 4 -1 9 59 10 132 l3 132 27 0 c55 1 77 50 36 79 -32 23
-39 21 -80 -24z m70 -7 c4 -25 -22 -37 -38 -17 -10 11 -10 17 0 29 17 20 34
14 38 -12z"/>
<path d="M720 581 c-126 -75 -123 -75 -149 -40 -35 46 -81 34 -81 -23 0 -31
26 -50 57 -42 12 3 24 1 27 -5 14 -22 37 -13 174 71 l32 20 0 -31 c0 -27 -7
-36 -46 -59 -82 -49 -82 -49 -53 -62 22 -10 33 -7 87 25 l62 37 0 84 c0 46 -3
84 -7 83 -5 0 -51 -26 -103 -58z m-170 -46 c15 -18 5 -35 -21 -35 -12 0 -19 7
-19 18 0 33 20 42 40 17z"/>
<path d="M392 578 c-16 -16 -15 -39 3 -62 8 -11 15 -30 15 -42 0 -18 17 -32
86 -70 79 -43 85 -48 69 -61 -27 -19 -41 -17 -102 18 -58 33 -69 33 -59 -3 5
-20 102 -88 125 -88 5 0 41 19 80 42 l72 41 -38 22 c-21 12 -70 41 -110 64
-40 23 -75 46 -78 51 -3 5 1 21 10 34 13 19 14 29 5 45 -12 24 -58 29 -78 9z
m58 -27 c0 -27 -19 -36 -37 -18 -18 18 -9 37 18 37 12 0 19 -7 19 -19z"/>
<path d="M2066 348 c-3 -13 -6 -38 -6 -55 0 -25 4 -33 18 -33 15 0 19 7 18 34
-1 19 -5 38 -8 41 -4 4 -4 13 -1 21 3 8 1 14 -5 14 -5 0 -12 -10 -16 -22z"/>
<path d="M967 303 c7 -49 23 -67 23 -26 0 17 3 38 6 47 4 11 0 16 -14 16 -18
0 -20 -5 -15 -37z"/>
<path d="M1040 300 c0 -33 3 -40 20 -40 17 0 20 7 20 40 0 33 -3 40 -20 40
-17 0 -20 -7 -20 -40z"/>
<path d="M1160 301 c0 -40 12 -53 26 -30 4 8 9 7 15 -2 6 -9 9 2 8 31 0 44 0
44 -14 20 -10 -18 -14 -20 -15 -8 0 9 -4 20 -10 23 -6 4 -10 -10 -10 -34z"/>
<path d="M1250 300 c0 -33 3 -40 20 -40 17 0 20 6 19 43 l-2 42 -7 -35 -7 -35
-2 33 c-2 46 -21 40 -21 -8z"/>
<path d="M1330 298 c0 -31 4 -38 20 -38 17 0 20 7 20 39 0 34 -3 40 -20 38
-16 -1 -20 -8 -20 -39z"/>
<path d="M1410 300 c0 -29 4 -40 15 -40 11 0 15 11 15 40 0 29 -4 40 -15 40
-11 0 -15 -11 -15 -40z"/>
<path d="M1487 333 c-4 -3 -7 -21 -7 -40 0 -26 4 -33 20 -33 17 0 20 7 20 40
0 38 -14 52 -33 33z"/>
<path d="M1600 330 c0 -5 4 -10 8 -10 5 0 7 -13 4 -29 -2 -16 1 -32 7 -35 7
-5 11 4 11 23 0 16 3 36 6 45 4 12 0 16 -15 16 -12 0 -21 -4 -21 -10z"/>
<path d="M1680 301 c0 -42 14 -61 33 -42 8 8 8 11 0 11 -6 0 -10 11 -9 25 0
14 4 25 9 25 4 0 7 5 7 10 0 6 -9 10 -20 10 -17 0 -20 -7 -20 -39z"/>
<path d="M1757 333 c-14 -14 -7 -71 9 -77 9 -4 20 -3 23 0 3 4 0 9 -6 11 -15
5 -18 53 -3 53 6 0 10 5 10 10 0 11 -23 14 -33 3z"/>
<path d="M1831 295 c0 -31 2 -36 9 -20 7 17 9 17 9 3 2 -37 21 -16 21 21 0 34
-3 40 -20 38 -17 -1 -20 -8 -19 -42z"/>
<path d="M1910 300 c0 -29 4 -40 15 -40 11 0 15 11 15 40 0 29 -4 40 -15 40
-11 0 -15 -11 -15 -40z"/>
<path d="M1980 301 c0 -25 5 -41 15 -44 17 -7 30 9 15 18 -5 3 -10 19 -10 36
0 16 -4 29 -10 29 -5 0 -10 -18 -10 -39z"/>
<path d="M2137 333 c-4 -3 -7 -21 -7 -40 0 -26 4 -33 20 -33 15 0 20 6 19 28
0 24 -1 25 -9 7 -8 -19 -9 -19 -9 3 -1 12 4 22 9 22 6 0 10 5 10 10 0 11 -23
14 -33 3z"/>
<path d="M2210 294 c0 -27 4 -43 10 -39 6 3 10 24 10 46 0 21 -4 39 -10 39 -5
0 -10 -21 -10 -46z"/>
<path d="M2267 333 c-14 -14 -7 -71 9 -77 9 -4 20 -3 23 0 3 4 0 9 -6 11 -15
5 -18 53 -3 53 6 0 10 5 10 10 0 11 -23 14 -33 3z"/>
<path d="M2340 300 c0 -33 3 -40 20 -40 17 0 20 7 20 40 0 33 -3 40 -20 40
-17 0 -20 -7 -20 -40z"/>
</g>
</svg>
